<svg width="24" height="24" viewBox="0 0 24 24" fill="none" xmlns="http://www.w3.org/2000/svg">
<path fill-rule="evenodd" clip-rule="evenodd" d="M5.04773 3.84157L5.84022 3.32425C6.79342 2.70335 7.88679 3.01806 8.41155 3.89488L10.5312 7.42835C10.6694 7.65875 10.6376 7.95295 10.4534 8.14849L9.373 9.2944L9.47288 9.5055C10.0721 10.7642 10.5398 11.4671 11.4273 12.3831L11.6241 12.5829C12.6407 13.6002 13.3481 14.0891 14.7 14.7337L14.912 14.8334L16.0582 13.7543C16.2293 13.5931 16.4758 13.5486 16.6891 13.6325L16.7782 13.6764L20.3135 15.7956C21.1902 16.3219 21.5042 17.414 20.8824 18.3665L20.0725 19.6046C19.9052 19.8554 19.7875 20.0237 19.6779 20.1665L19.5145 20.3688C18.7514 21.2697 18.0321 21.3784 16.3894 20.9691C13.1918 20.1709 10.5362 18.7499 7.99752 16.2093C5.45659 13.6693 4.03478 11.0129 3.23862 7.81852C2.7069 5.69166 2.96263 5.20147 5.04773 3.84157ZM9.268 7.6564L7.38218 4.51166L7.32662 4.43039C7.13066 4.17988 6.82001 4.11816 6.49568 4.32943L5.70347 4.84656C4.1926 5.83195 4.0292 5.94045 4.29162 7.07275L4.40289 7.52789C5.14861 10.5198 6.46647 12.9821 8.84612 15.3609C11.2236 17.7401 13.685 19.0572 16.6797 19.8048C17.9262 20.1153 18.1904 20.0754 18.5993 19.5927L18.6437 19.5395C18.7472 19.4131 18.8524 19.2681 19.0152 19.0266L19.8773 17.711C20.1104 17.3539 20.0129 17.0147 19.6962 16.8246L16.55 14.9384L15.4412 15.9847C15.2894 16.1277 15.0764 16.18 14.879 16.1288L14.782 16.0945C12.9154 15.2485 12.045 14.7017 10.7754 13.4313C9.5042 12.16 8.9545 11.2852 8.113 9.42421C8.0128 9.20263 8.05626 8.94249 8.22304 8.76551L9.268 7.6564Z" fill="#6B7682"/>
</svg>
